# xmcd CD database file
#
# Track frame offsets:
#	150
#	14229
#	43919
#	62588
#	83121
#	100222
#	121426
#	134793
#	159152
#	174747
#	197356
#	216918
#	237256
#	259772
#	277709
#	291646
#	308356
#	318174
#	331218
#
# Disc length: 4638 seconds
#
# Revision: 0
# Processed by: cddbd v1.5PL3 Copyright (c) Steve Scherf et al.
# Submitted via: CDex 1.50
#
DISCID=14121c13
DTITLE=En Clon - The One
DYEAR=2003
DGENRE=New Age
TTITLE0=Sob O Sol - En Clon
TTITLE1=Maktub - En Clon
TTITLE2=Nur Lain (Habibi) - En Clon
TTITLE3=A Miragem - En Clon
TTITLE4=Isis - En Clon
TTITLE5=Azez Alaya - En Clon
TTITLE6=A Barcan De Ra - En Clon
TTITLE7=Maktub II - En Clon
TTITLE8=Hino Ao Soll - En Clon
TTITLE9=Wraal A Chajar - En Clon
TTITLE10=Entre Dois Mundos - En Clon
TTITLE11=O Espelho - En Clon
TTITLE12=Inta Aomri - En Clon
TTITLE13=Kyrie - En Clon
TTITLE14=Areias - En Clon
TTITLE15=Sete Veus - En Clon
TTITLE16=Dancas Sagradas De Isis - En Clon
TTITLE17=A Miragem (Instrumental) - En Clon
TTITLE18=Maktub III - En Clon
EXTD=YEAR: 2003
EXTT0=
EXTT1=
EXTT2=
EXTT3=
EXTT4=
EXTT5=
EXTT6=
EXTT7=
EXTT8=
EXTT9=
EXTT10=
EXTT11=
EXTT12=
EXTT13=
EXTT14=
EXTT15=
EXTT16=
EXTT17=
EXTT18=
PLAYORDER=
